<svg xmlns="http://www.w3.org/2000/svg" width="158" height="158" viewBox="0 0 158 158">
  <g id="Group_51315" data-name="Group 51315" transform="translate(-602 -2493)">
    <circle id="Ellipse_50" data-name="Ellipse 50" cx="79" cy="79" r="79" transform="translate(602 2493)" fill="#bcd55d"/>
    <path id="Path_75408" data-name="Path 75408" d="M108.747,68.049c-2.319-2.844-3.791-5.8-2.543-9.539a8.989,8.989,0,0,1,10.684-6.084c3.965.806,7.118,5.169,6.788,9.4a8.924,8.924,0,0,1-8.507,8.16c-1.1.09-2.705.516-3.144,1.306-4.788,8.62-9.391,17.343-14.075,26.1,3.144,3.563,4.154,7.409,1.665,11.6A8.91,8.91,0,0,1,88.6,112.491a8.6,8.6,0,0,1-5.255-10.216c.564-1.989.1-2.941-1.468-3.935a67.389,67.389,0,0,1-5.516-3.932c-2.412-1.89-4.769-3.688-8.034-1.83a2.011,2.011,0,0,1-1.561.188c-3.652-1.639-5.009.687-6.506,3.384-2.652,4.776-5.569,9.405-7.716,12.995,1.141,3.825,2.579,6.65,2.708,9.535.211,4.679-3.778,8.016-8.642,8.03a8.468,8.468,0,0,1-8.829-7.969c-.276-5.142,2.744-8.839,7.471-9.667a6.025,6.025,0,0,0,3.634-2.372q4.9-7.572,9.291-15.468a6.331,6.331,0,0,0,.342-4.294c-1.046-3.944-.074-7.713,3.018-10.161A9.036,9.036,0,0,1,71.8,76.286a8.635,8.635,0,0,1,3.84,9.792c-.585,1.947.057,2.728,1.435,3.63,1.528,1,2.971,2.13,4.461,3.191,5.346,3.8,5.355,3.838,11.616,2.557A3.167,3.167,0,0,0,94.9,93.9c4.644-8.583,9.226-17.2,13.846-25.85m10.515-7.022a4.581,4.581,0,0,0-4.485-4.543,4.627,4.627,0,0,0-4.646,4.743,4.824,4.824,0,0,0,4.524,4.594,4.747,4.747,0,0,0,4.607-4.794M92.117,99.595a4.676,4.676,0,0,0-4.617,4.417,4.555,4.555,0,0,0,4.425,4.9,4.629,4.629,0,0,0,4.682-4.378,4.789,4.789,0,0,0-4.489-4.937M71.56,83.92a4.385,4.385,0,0,0-4.31-4.633,4.6,4.6,0,0,0-4.875,4.483,4.858,4.858,0,0,0,4.4,4.715A4.585,4.585,0,0,0,71.56,83.92M46.555,122.6a4.7,4.7,0,1,0-.092-9.4,4.957,4.957,0,0,0-4.535,4.6,4.9,4.9,0,0,0,4.627,4.808" transform="translate(601.271 2484.604)" fill="#6e180c"/>
  </g>
</svg>
