<svg xmlns="http://www.w3.org/2000/svg" xmlns:xlink="http://www.w3.org/1999/xlink" width="158" height="158" viewBox="0 0 158 158">
  <defs>
    <clipPath id="clip-path">
      <rect id="Rectangle_19960" data-name="Rectangle 19960" width="105.622" height="60.441" fill="#6e180c"/>
    </clipPath>
  </defs>
  <g id="Group_51319" data-name="Group 51319" transform="translate(-980 -2928)">
    <circle id="Ellipse_54" data-name="Ellipse 54" cx="79" cy="79" r="79" transform="translate(980 2928)" fill="#bcd55d"/>
    <g id="Group_51129" data-name="Group 51129" transform="translate(1006 2977)">
      <g id="Group_51128" data-name="Group 51128" clip-path="url(#clip-path)">
        <path id="Path_75426" data-name="Path 75426" d="M0,17.9c.35-1.779.638-3.572,1.073-5.33A13.7,13.7,0,0,1,2.211,9.609,7.4,7.4,0,0,1,9.324,5.261c10.346.054,20.692.006,31.038.04a3.748,3.748,0,0,0,2.745-1,17.534,17.534,0,0,1,23.328.292,2.764,2.764,0,0,0,1.7.661c8.318.042,16.642.216,24.952-.04,5.189-.16,8.227,2.339,10.286,6.667a23.208,23.208,0,0,1,2.048,7.505,5.767,5.767,0,0,0,.2.787v5.364a5.8,5.8,0,0,1-4.25,4.2,9.6,9.6,0,0,1-2.146.185c-3.919.017-7.838.008-11.757.008h-1.13a10.6,10.6,0,0,0,8.274,6.977c1.334.133,1.968.68,2.028,1.75a1.58,1.58,0,0,1-1.42,1.812,6.677,6.677,0,0,1-1.128.062q-12.891,0-25.782,0H66.964V60.309l-12.3-12.317-12.4,12.449v-19.9H40.935c-8.216,0-16.437-.182-24.646.056-6.9.2-11.134-3.275-14-9.055a21.328,21.328,0,0,1-2.1-7.382A3.94,3.94,0,0,0,0,23.472V17.9m69.965,8.38a2.156,2.156,0,0,0,.341.085q14.847.007,29.693,0a1.921,1.921,0,0,0,2.095-2.143,39.937,39.937,0,0,0-.187-4.116,17.883,17.883,0,0,0-3-8.753,5.511,5.511,0,0,0-4.841-2.575c-7.628.09-15.259.035-22.888.035H69.914a18.1,18.1,0,0,1,.051,17.466M42.254,36.928c0-2.008-.065-3.86.025-5.705.052-1.075-.315-1.315-1.339-1.311-9.173.038-18.347.023-27.521.02-.515,0-1.03-.018-1.545-.046a3.994,3.994,0,0,1-3.186-1.825c-1.5-2.176-1.672-4.68-1.614-7.2a1.619,1.619,0,0,1,1.783-1.493,1.6,1.6,0,0,1,1.658,1.5c.088.681.072,1.378.194,2.051a12.172,12.172,0,0,0,.663,2.671c.458,1.052,1.341,1.048,1.906.058a5.611,5.611,0,0,0,.536-1.434,17.853,17.853,0,0,0-.053-7.96c-.407-1.98-.693-4-1.844-5.732a3.525,3.525,0,0,0-5.792-.367,8.848,8.848,0,0,0-1.334,2.407,22.849,22.849,0,0,0-1.236,8.2C3.513,25.726,4.805,30.275,8.267,34A8.651,8.651,0,0,0,15,36.957c8.623-.08,17.247-.029,25.872-.029ZM39.145,26.317a18.24,18.24,0,0,1,.038-17.438H15.24c2.393,5.642,3.4,11.372,1.9,17.438Zm15.4-22.778A14.105,14.105,0,0,0,40.515,17.7a14.059,14.059,0,0,0,28.115-.159,14.086,14.086,0,0,0-14.086-14m-8.7,48.378,8.826-8.84L63.3,51.751V33.02a17.919,17.919,0,0,1-17.462.013Zm40.831-15.03a37.225,37.225,0,0,1-3.239-5.1,2.7,2.7,0,0,0-3.041-1.892c-4.156.116-8.318.026-12.477.063-.336,0-.955.337-.961.534-.07,2.117-.044,4.237-.044,6.394Z" transform="translate(0 0)" fill="#6e180c"/>
        <path id="Path_75427" data-name="Path 75427" d="M234.357,44.592a10.593,10.593,0,1,1-10.539-10.624,10.761,10.761,0,0,1,10.539,10.624m-3.6-.023a6.988,6.988,0,1,0-6.995,7,6.977,6.977,0,0,0,6.995-7" transform="translate(-169.195 -26.96)" fill="#6e180c"/>
      </g>
    </g>
  </g>
</svg>
