<svg xmlns="http://www.w3.org/2000/svg" xmlns:xlink="http://www.w3.org/1999/xlink" width="158" height="158" viewBox="0 0 158 158">
  <defs>
    <clipPath id="clip-path">
      <rect id="Rectangle_19958" data-name="Rectangle 19958" width="90" height="90" transform="translate(-0.469 -0.469)" fill="#6e180c"/>
    </clipPath>
  </defs>
  <g id="Group_51317" data-name="Group 51317" transform="translate(-218.709 -2928)">
    <circle id="Ellipse_52" data-name="Ellipse 52" cx="79" cy="79" r="79" transform="translate(218.709 2928)" fill="#bcd55d"/>
    <g id="Group_51125" data-name="Group 51125" transform="translate(254.178 2962.469)">
      <g id="Group_51124" data-name="Group 51124" clip-path="url(#clip-path)">
        <path id="Path_75417" data-name="Path 75417" d="M0,234.8c.223-.59.414-1.195.675-1.767a6.537,6.537,0,0,1,2.979-3.152c5.722-3.044,11.469-6.047,17.106-9.241,2.832-1.6,5.494-1.136,8.239-.078a1.257,1.257,0,0,1,.746,1.652,1.228,1.228,0,0,1-1.526.956c-.873-.168-1.724-.451-2.654-.7V228c0,2.29.006,4.58,0,6.869a1.4,1.4,0,1,1-2.776.011c-.007-3.97,0-7.94,0-12.1L6.2,231.717l8.022,7.734c.918.885,1.872,1.737,2.742,2.667a1.845,1.845,0,0,0,2.335.463c2.82-1.2,5.678-2.312,8.479-3.554a4.993,4.993,0,0,1,4.948.311c2.526,1.522,5.1,2.968,7.664,4.455,1.973-1.855,4.182-2.439,6.625-1.2,2.261,1.145,3.133,3.132,3.008,5.7,1.818.48,3.65.969,5.484,1.448,2.656.694,5.319,1.36,7.967,2.083a2.48,2.48,0,0,0,2.13-.312c1.913-1.2,3.884-2.3,5.788-3.518a4.712,4.712,0,0,1,4.775-.313c3.12,1.378,6.274,2.679,9.414,4.011.183.077.371.141.622.235V223.032c-.426.179-.738.28-1.023.433q-8.522,4.585-17.038,9.181a2.935,2.935,0,0,1-.773.386c-1.106.206-1.288.877-1.271,1.913.066,3.941.031,7.884.023,11.826,0,1.037-.452,1.581-1.288,1.624-.922.047-1.5-.549-1.5-1.607q-.012-5.609,0-11.217v-1.9c-2.518-.746-4.979-1.476-7.441-2.2-.662-.2-1.238-.57-1.208-1.287a1.777,1.777,0,0,1,.657-1.281,2.081,2.081,0,0,1,1.474-.076c1.924.519,3.845,1.063,5.732,1.7a5.274,5.274,0,0,0,4.49-.455c5.761-3.155,11.548-6.263,17.333-9.374,2.044-1.1,3.678-.485,4.518,1.651a1.544,1.544,0,0,0,.18.272v32.529a2.545,2.545,0,0,0-.173.383,6.942,6.942,0,0,1-3.681,4.673c-2.217,1.116-4.364,2.372-6.566,3.519-4.345,2.262-8.708,4.491-13.063,6.733H63.318c-.433-.141-.862-.291-1.3-.421Q44.081,264.7,26.142,259.352a4.678,4.678,0,0,0-3.765.37c-3.626,1.987-7.27,3.941-10.908,5.908-2.29,1.237-4.571,2.491-6.873,3.7a2.863,2.863,0,0,1-4.424-1.72A1.666,1.666,0,0,0,0,267.33V234.8m86.133,20.212c-.26-.13-.458-.244-.666-.332-3.487-1.48-6.985-2.935-10.456-4.453a2.119,2.119,0,0,0-2.186.182c-1.94,1.211-3.931,2.339-5.865,3.559a4.945,4.945,0,0,1-4.149.588c-4.355-1.168-8.726-2.276-13.08-3.447a1.286,1.286,0,0,0-1.446.354,5.462,5.462,0,0,1-9.2-4.57.742.742,0,0,0-.464-.873q-3.771-2.154-7.516-4.351a2.064,2.064,0,0,0-2.041-.123c-2.872,1.224-5.783,2.358-8.649,3.595a4.535,4.535,0,0,1-5.462-1.042c-3.494-3.434-7.039-6.816-10.565-10.218-.2-.188-.4-.363-.849-.761a13.672,13.672,0,0,0-.733,2.953c-.049,10-.032,20-.025,30.006a6.933,6.933,0,0,0,.144.961l19.852-10.689v-.827c0-2.725-.007-5.451.006-8.176a1.413,1.413,0,0,1,1.345-1.515,1.433,1.433,0,0,1,1.429,1.526c.01.29,0,.58,0,.87v8.038L63.328,267.49c0-2.938,0-5.777,0-8.616,0-1.052.562-1.737,1.4-1.745s1.383.642,1.387,1.736c.008,2.464,0,4.928,0,7.393v.987c.331-.148.492-.208.641-.288q8.713-4.7,17.427-9.391a4.056,4.056,0,0,0,1.942-2.552m-41.564-4.87a2.629,2.629,0,0,0,2.619-2.751,2.658,2.658,0,0,0-5.315.076,2.616,2.616,0,0,0,2.7,2.675" transform="translate(0 -181.399)" fill="#6e180c"/>
        <path id="Path_75418" data-name="Path 75418" d="M162.768,0a39.428,39.428,0,0,1,4.265,1.05c7.586,2.756,12.15,8.124,13.468,16.1a19.326,19.326,0,0,1-2.633,13.261Q170.046,43.689,162.2,56.95c-.97,1.642-2.059,1.637-3.034-.011q-7.906-13.374-15.808-26.751A20.089,20.089,0,0,1,157,.337c.534-.1,1.062-.224,1.593-.337Zm-2.085,53.974c.259-.436.42-.707.58-.978q7.105-12.033,14.21-24.066a17.01,17.01,0,0,0,2.294-11.168,17.25,17.25,0,1,0-31.918,11.119q6.3,10.695,12.625,21.378c.7,1.189,1.411,2.374,2.208,3.715" transform="translate(-116.149)" fill="#6e180c"/>
        <path id="Path_75419" data-name="Path 75419" d="M432.047,44.825a30.357,30.357,0,0,1-2.786,13.189c-.4.872-1.032,1.214-1.793.957a1.312,1.312,0,0,1-.965-1.466,3.32,3.32,0,0,1,.342-.976,27.479,27.479,0,0,0,2.408-11.543,27.99,27.99,0,0,0-3.064-12.523c-.078-.155-.164-.306-.241-.462a1.439,1.439,0,0,1,.515-2.09,1.353,1.353,0,0,1,1.933.761,46.081,46.081,0,0,1,2.008,4.6,27.863,27.863,0,0,1,1.644,9.55" transform="translate(-351.662 -24.568)" fill="#6e180c"/>
        <path id="Path_75420" data-name="Path 75420" d="M54.545,29.916a1.394,1.394,0,0,1,1.26,2.117c-.677,1.594-1.46,3.154-1.99,4.8a27.253,27.253,0,0,0,1.129,20.049c.452,1.018.264,1.782-.509,2.156-.839.406-1.583.063-2.045-1a30.45,30.45,0,0,1,.766-26.96c.309-.617.65-1.181,1.39-1.159" transform="translate(-40.983 -24.712)" fill="#6e180c"/>
        <path id="Path_75421" data-name="Path 75421" d="M93.525,59.991a1.4,1.4,0,0,1,1.208,2.115,21.05,21.05,0,0,0-1.6,7.072,20.756,20.756,0,0,0,.922,7.283,3.439,3.439,0,0,1,.145.5,1.41,1.41,0,0,1-.94,1.649,1.307,1.307,0,0,1-1.718-.916,34.626,34.626,0,0,1-1.079-4.636A22.961,22.961,0,0,1,92.126,61.07c.333-.806.714-1.082,1.4-1.079" transform="translate(-74.567 -49.555)" fill="#6e180c"/>
        <path id="Path_75422" data-name="Path 75422" d="M399.728,71.866c-.229,1.093-.637,3.243-1.139,5.37-.256,1.082-.963,1.486-1.824,1.236-.831-.242-1.141-1-.818-2.052a20.843,20.843,0,0,0-.635-14.411,1.454,1.454,0,0,1,.641-2.056,1.426,1.426,0,0,1,1.939.933,25.719,25.719,0,0,1,1.836,10.98" transform="translate(-326.405 -49.421)" fill="#6e180c"/>
        <path id="Path_75423" data-name="Path 75423" d="M212.725,60.581a11.543,11.543,0,1,1-11.253-11.562,11.59,11.59,0,0,1,11.253,11.562m-11.558,8.687a8.736,8.736,0,1,0-8.7-8.738,8.686,8.686,0,0,0,8.7,8.738" transform="translate(-156.651 -40.492)" fill="#6e180c"/>
        <path id="Path_75424" data-name="Path 75424" d="M226.92,91.183A5.058,5.058,0,1,1,232,96.247a5.07,5.07,0,0,1-5.085-5.064m7.326-.049a2.268,2.268,0,1,0-4.535.048,2.268,2.268,0,0,0,4.535-.048" transform="translate(-187.447 -71.104)" fill="#6e180c"/>
      </g>
    </g>
  </g>
</svg>
