<svg xmlns="http://www.w3.org/2000/svg" xmlns:xlink="http://www.w3.org/1999/xlink" width="158" height="158" viewBox="0 0 158 158">
  <defs>
    <clipPath id="clip-path">
      <rect id="Rectangle_19957" data-name="Rectangle 19957" width="64.374" height="82.311" fill="#6e180c"/>
    </clipPath>
  </defs>
  <g id="Group_51316" data-name="Group 51316" transform="translate(-980 -2493)">
    <circle id="Ellipse_51" data-name="Ellipse 51" cx="79" cy="79" r="79" transform="translate(980 2493)" fill="#bcd55d"/>
    <g id="Group_51123" data-name="Group 51123" transform="translate(1029.813 2531)">
      <g id="Group_51122" data-name="Group 51122" clip-path="url(#clip-path)">
        <path id="Path_75409" data-name="Path 75409" d="M0,41.122Q0,23.477,0,5.832C0,1.258,1.248.008,5.827.007,18.318,0,30.809-.024,43.3.057a4.734,4.734,0,0,1,2.978,1.234q8.6,8.377,16.991,16.959a3.979,3.979,0,0,1,1.058,2.514q.088,28.377.037,56.755c0,3.3-1.489,4.781-4.781,4.784q-27.287.015-54.573,0c-3.526,0-5-1.543-5-5.165Q0,59.131.006,41.122ZM43.258,2.5H41.218q-17.82,0-35.64,0c-2.813,0-3.1.282-3.1,3.143q-.009,35.55-.007,71.1c0,2.793.3,3.078,3.182,3.079q26.639.009,53.279.011c2.65,0,3.025-.366,3.025-3.064q0-26.821-.012-53.642c0-.639-.069-1.279-.112-2.011-4.618,0-9.038.007-13.459,0-3.544-.008-5.1-1.552-5.112-5.078-.013-4.418,0-8.836,0-13.536m16,16.084L45.743,4.835c0,3.952-.072,7.934.073,11.908A2.434,2.434,0,0,0,47.394,18.5c4.072.154,8.153.082,11.868.082" transform="translate(0 0)" fill="#6e180c"/>
        <path id="Path_75410" data-name="Path 75410" d="M139.206,27.039c-3.715,0-7.8.072-11.868-.082A2.434,2.434,0,0,1,125.76,25.2c-.146-3.974-.073-7.956-.073-11.908l13.519,13.751" transform="translate(-79.944 -8.453)" fill="#6e180c"/>
        <path id="Path_75411" data-name="Path 75411" d="M48.657,86.579H28.468a3.46,3.46,0,0,1-1.435-.055c-.461-.235-1.073-.77-1.067-1.165.007-.421.592-.959,1.053-1.208a3.288,3.288,0,0,1,1.431-.073q20.189,0,40.378,0c.424,0,.923-.134,1.256.042a10.131,10.131,0,0,1,1.542,1.209c-.5.417-.974,1.137-1.514,1.194a45.8,45.8,0,0,1-4.723.057H48.657" transform="translate(-16.518 -53.454)" fill="#6e180c"/>
        <path id="Path_75412" data-name="Path 75412" d="M48.671,137.608q-10.093,0-20.187,0a4.351,4.351,0,0,1-1.616-.087,1.652,1.652,0,0,1-.946-1.093,1.575,1.575,0,0,1,.845-1.172,4.691,4.691,0,0,1,1.789-.143q20.186-.008,40.373,0c.3,0,.665-.1.9.027.61.338,1.163.778,1.739,1.178-.6.43-1.194,1.225-1.8,1.235-6.06.094-12.123.059-18.185.059h-2.91" transform="translate(-16.49 -85.924)" fill="#6e180c"/>
        <path id="Path_75413" data-name="Path 75413" d="M48.784,188.59q-10.169,0-20.338,0a3.425,3.425,0,0,1-1.433-.061c-.464-.237-1.077-.764-1.077-1.167s.591-1,1.054-1.189a4.982,4.982,0,0,1,1.795-.082q20.156,0,40.312,0c.424,0,.942-.141,1.249.051a2.6,2.6,0,0,1,1.175,1.3c.067.263-.666.885-1.146,1.085a4.449,4.449,0,0,1-1.617.064q-9.987,0-19.975,0" transform="translate(-16.499 -118.347)" fill="#6e180c"/>
        <path id="Path_75414" data-name="Path 75414" d="M48.765,109.756l20.362,0a2.98,2.98,0,0,1,1.255.051,6.414,6.414,0,0,1,1.234,1.09,7.3,7.3,0,0,1-1.28,1.232c-.317.187-.828.052-1.252.052q-20.362.007-40.724.009a3.077,3.077,0,0,1-1.427-.1,2.046,2.046,0,0,1-.969-1.262c-.038-.3.576-.826,1-1.014a3.8,3.8,0,0,1,1.437-.063q10.181,0,20.362,0" transform="translate(-16.515 -69.795)" fill="#6e180c"/>
        <path id="Path_75415" data-name="Path 75415" d="M48.575,163.2q-10.087,0-20.175,0a3.924,3.924,0,0,1-1.607-.127,1.6,1.6,0,0,1-.853-1.149c.015-.377.541-.863.956-1.059a3.581,3.581,0,0,1,1.434-.084q20.447,0,40.895,0c.423,0,.935-.121,1.249.071.453.277,1.068.805,1.046,1.2a1.637,1.637,0,0,1-1.142,1.085,24.311,24.311,0,0,1-3.446.072q-9.178,0-18.357,0" transform="translate(-16.502 -102.251)" fill="#6e180c"/>
        <path id="Path_75416" data-name="Path 75416" d="M36.759,56.683q-4.455,0-8.909,0c-.922,0-2,.1-2.044-1.185s1-1.312,1.948-1.312c6.06,0,12.122-.04,18.181.049.645.009,1.767.7,1.823,1.181.143,1.215-.935,1.278-1.908,1.272-3.03-.02-6.06-.007-9.091-.007" transform="translate(-16.415 -34.465)" fill="#6e180c"/>
      </g>
    </g>
  </g>
</svg>
