<svg xmlns="http://www.w3.org/2000/svg" xmlns:xlink="http://www.w3.org/1999/xlink" width="158" height="158" viewBox="0 0 158 158">
  <defs>
    <clipPath id="clip-path">
      <rect id="Rectangle_19956" data-name="Rectangle 19956" width="91.239" height="91.313" fill="#6e180c"/>
    </clipPath>
  </defs>
  <g id="Group_51314" data-name="Group 51314" transform="translate(-219.709 -2493)">
    <circle id="Ellipse_49" data-name="Ellipse 49" cx="79" cy="79" r="79" transform="translate(219.709 2493)" fill="#bcd55d"/>
    <g id="Group_51121" data-name="Group 51121" transform="translate(260.38 2526.344)">
      <g id="Group_51120" data-name="Group 51120" clip-path="url(#clip-path)">
        <path id="Path_75403" data-name="Path 75403" d="M147.491,91.155c0,10.638-.026,21.275.027,31.912.008,1.513-.408,2.014-1.978,1.972-3.857-.1-7.719-.009-11.579.01-1.907.01-2.04-.108-2.04-2.074q.005-31.832,0-63.664c0-1.425.4-1.957,1.9-1.92,3.792.093,7.589.022,11.384,0,2.11-.014,2.288.139,2.288,2.172q0,15.8,0,31.595" transform="translate(-90.017 -39.16)" fill="none" stroke="#6e180c" stroke-width="2"/>
        <path id="Path_75404" data-name="Path 75404" d="M205.171,115.6q0,13.756,0,27.511c0,1.089-.466,1.565-1.648,1.544q-6.187-.106-12.376-.028c-1.222.015-1.54-.474-1.537-1.6.025-9.561.013-19.122.013-28.682,0-8.728.039-17.457-.031-26.184-.013-1.629.508-2.084,2.095-2.041q5.791.156,11.589,0c1.429-.036,1.9.551,1.9,1.823q0,6.609,0,13.217,0,7.219,0,14.438" transform="translate(-129.37 -58.766)" fill="none" stroke="#6e180c" stroke-width="2"/>
        <path id="Path_75405" data-name="Path 75405" d="M89.854,139.795c0,7.561-.027,15.123.024,22.684.01,1.407-.346,1.964-1.871,1.925-4.015-.1-8.035-.073-12.052-.01-1.311.02-1.644-.6-1.642-1.728.013-7.119,0-14.238.015-21.357.022-8.236.086-16.472.087-24.708,0-1.22.511-1.518,1.629-1.506,4.019.046,8.04.074,12.058-.012,1.448-.031,1.781.524,1.773,1.855-.047,7.619-.023,15.238-.023,22.857" transform="translate(-50.71 -78.529)" fill="none" stroke="#6e180c" stroke-width="2"/>
        <path id="Path_75406" data-name="Path 75406" d="M32.5,180.974c0,4.973-.04,9.946.026,14.918.018,1.4-.453,1.823-1.835,1.8-4.068-.079-8.139-.064-12.208-.006-1.2.017-1.556-.449-1.553-1.582q.037-15.235,0-30.471c0-1.29.42-1.782,1.747-1.76,4.01.067,8.021.063,12.032.017,1.355-.015,1.841.461,1.822,1.853-.069,5.078-.027,10.156-.027,15.235" transform="translate(-11.551 -111.82)" fill="none" stroke="#6e180c" stroke-width="2"/>
        <path id="Path_75407" data-name="Path 75407" d="M3.6,87.674H86.637l.133-1.724,4.47,2.708-4.445,2.655c-.064-.64-.109-1.091-.176-1.765H1.707V4.641L0,4.424,2.637,0,5.291,4.391,3.6,4.624Z" fill="#6e180c"/>
      </g>
    </g>
  </g>
</svg>
