<svg xmlns="http://www.w3.org/2000/svg" xmlns:xlink="http://www.w3.org/1999/xlink" width="158" height="158" viewBox="0 0 158 158">
  <defs>
    <clipPath id="clip-path">
      <rect id="Rectangle_19959" data-name="Rectangle 19959" width="86.215" height="76.578" fill="#6e180c"/>
    </clipPath>
  </defs>
  <g id="Group_51318" data-name="Group 51318" transform="translate(-603 -2928)">
    <circle id="Ellipse_53" data-name="Ellipse 53" cx="79" cy="79" r="79" transform="translate(603 2928)" fill="#bcd55d"/>
    <g id="Group_51127" data-name="Group 51127" transform="translate(638.596 2969.082)">
      <g id="Group_51126" data-name="Group 51126" clip-path="url(#clip-path)">
        <path id="Path_75425" data-name="Path 75425" d="M34.976,10.575H27.258v2.664q0,16.754,0,33.507c-.006,5.326-3.324,8.845-8.249,8.8-4.771-.043-7.987-3.567-7.992-8.806q-.017-16.754,0-33.507V10.708c-6.257-.864-8.572,1.125-8.573,7.116q0,22.5,0,45v2.925c1.105.055,2.1.147,3.092.147Q44.062,65.9,82.6,65.9c3.723,0,4.2.648,3.106,4.227a8.8,8.8,0,0,1-8.532,6.429q-34.106.041-68.212,0A8.818,8.818,0,0,1,0,67.38Q0,42.968.012,18.555c0-7.652,1.819-9.784,9.571-10.883,0-1.741.06-3.545-.018-5.344C9.5.743,10.013-.022,11.733,0,16.758.065,21.785.05,26.81.007c1.427-.012,2.048.559,2.02,1.977-.038,1.891-.01,3.784-.01,5.828h4.615c0-1.921.053-3.8-.016-5.672C33.363.615,33.953-.014,35.514,0q7.539.082,15.078,0c1.575-.015,2.127.653,2.063,2.166-.077,1.821-.018,3.648-.018,5.636h4.808c0-2,.049-3.9-.016-5.79C57.38.588,57.958,0,59.394.01q7.658.055,15.317,0c1.476-.011,1.969.667,1.93,2.048-.053,1.828-.013,3.659-.013,5.918,2.321,0,4.524-.089,6.713.051.712.045,1.386.684,2.077,1.052-.692.462-1.363,1.279-2.082,1.324-2.614.161-5.244.063-8.2.063v2.672q0,16.754,0,33.507c0,5.4-3.218,8.912-8.126,8.9C62.13,55.537,58.9,52,58.9,46.6q-.015-16.634,0-33.268V10.61H51.243c0,.819,0,1.66,0,2.5,0,11.408.028,22.816-.022,34.224a7.861,7.861,0,0,1-8.074,8.212c-4.682,0-8.139-3.511-8.156-8.444-.04-11.249-.013-22.5-.014-33.747,0-.864,0-1.727,0-2.78M2.716,68.515c.571,3.709,2.992,5.652,7.092,5.655q33.243.025,66.487,0a9.377,9.377,0,0,0,2.127-.222c2.975-.7,4.644-2.591,4.8-5.432ZM72.633,29.981a23.635,23.635,0,0,1-3.867-.048c-1.093-.188-3.021-.791-3.017-1.2.019-1.938,1.76-1.246,2.9-1.329,1.312-.1,2.637-.022,3.952-.022v-7.2H61.481a7.451,7.451,0,0,0-.154,1.018q-.014,12.912-.005,25.824a6.808,6.808,0,0,0,.158,1.419,5.69,5.69,0,0,0,5.544,4.69,5.415,5.415,0,0,0,5.525-4.668,87.943,87.943,0,0,0,.07-9.131c-1.886,0-3.556.1-5.205-.05-.631-.057-1.211-.678-1.814-1.043.6-.453,1.168-1.228,1.81-1.3a49.27,49.27,0,0,1,5.223-.062ZM37.625,10.542V36.777H48.653v-6.8a32.472,32.472,0,0,1-4.464-.055,9.01,9.01,0,0,1-2.48-1.2A7.968,7.968,0,0,1,44.1,27.446a32.557,32.557,0,0,1,4.566-.059v-7.33a23.328,23.328,0,0,1-3.729-.044c-1.107-.188-3.1-.828-3.074-1.114.2-2.085,2-1.12,3.178-1.263a31.163,31.163,0,0,1,3.635-.031V10.542ZM24.708,36.889V30.1H13.5c0,6.142-.167,12.173.074,18.187.112,2.789,2.694,4.757,5.363,4.851a5.329,5.329,0,0,0,5.631-4.49,81.992,81.992,0,0,0,.079-9.31c-1.859,0-3.533.1-5.182-.052-.618-.057-1.181-.7-1.769-1.083.617-.439,1.2-1.183,1.857-1.257a47.96,47.96,0,0,1,5.155-.06m.045-16.837c-1.912,0-3.655.1-5.372-.057-.6-.056-1.13-.773-1.692-1.188.566-.4,1.107-1.089,1.7-1.14,1.772-.153,3.566-.055,5.289-.055V10.6H13.592V27.22H24.753ZM37.6,39.347c0,3.179-.21,6.12.06,9.016a5.364,5.364,0,0,0,5.378,4.776A5.438,5.438,0,0,0,48.649,48.6a90.313,90.313,0,0,0,.072-9.254ZM12.179,7.844h14V2.6h-14Zm23.812-.032H50.122v-5.2H35.991Zm23.984-.031H74.054v-5.2H59.975Zm1.532,9.657H72.623V10.58H61.508Z" transform="translate(0 0)" fill="#6e180c"/>
      </g>
    </g>
  </g>
</svg>
