<svg xmlns="http://www.w3.org/2000/svg" xmlns:xlink="http://www.w3.org/1999/xlink" width="155.056" height="155.787" viewBox="0 0 155.056 155.787">
  <defs>
    <clipPath id="clip-path">
      <path id="Path_74888" data-name="Path 74888" d="M2,68.845A66.845,66.845,0,1,0,68.845,2,66.845,66.845,0,0,0,2,68.845" transform="translate(-2 -2)" fill="none"/>
    </clipPath>
    <linearGradient id="linear-gradient" x1="-0.003" y1="1.003" x2="-0.002" y2="1.003" gradientUnits="objectBoundingBox">
      <stop offset="0" stop-color="#d8d8d7"/>
      <stop offset="0.116" stop-color="#e2e2e1"/>
      <stop offset="0.368" stop-color="#f2f2f2"/>
      <stop offset="0.646" stop-color="#fbfbfb"/>
      <stop offset="1" stop-color="#fff"/>
    </linearGradient>
    <clipPath id="clip-path-2">
      <rect id="Rectangle_18995" data-name="Rectangle 18995" width="134.577" height="134.577" fill="none"/>
    </clipPath>
    <linearGradient id="linear-gradient-2" x1="-0.001" y1="1.001" x2="0.001" y2="1.001" gradientUnits="objectBoundingBox">
      <stop offset="0" stop-color="#fff"/>
      <stop offset="0.354" stop-color="#fbfbfb"/>
      <stop offset="0.632" stop-color="#f2f2f2"/>
      <stop offset="0.884" stop-color="#e2e2e1"/>
      <stop offset="1" stop-color="#d8d8d7"/>
    </linearGradient>
  </defs>
  <g id="Group_51276" data-name="Group 51276" transform="translate(0)">
    <rect id="Rectangle_19002" data-name="Rectangle 19002" width="155.056" height="155.787" rx="77.528" transform="translate(0 0)" fill="#c38c56"/>
    <g id="Group_50330" data-name="Group 50330" transform="translate(10.239 10.971)">
      <g id="Group_50327" data-name="Group 50327" transform="translate(0.265 0.422)">
        <g id="Group_50326" data-name="Group 50326" clip-path="url(#clip-path)">
          <rect id="Rectangle_18994" data-name="Rectangle 18994" width="133.845" height="133.845" transform="translate(-0.265 0.309)" fill="url(#linear-gradient)"/>
        </g>
      </g>
      <g id="Group_50329" data-name="Group 50329" transform="translate(0 0)">
        <g id="Group_50328" data-name="Group 50328" clip-path="url(#clip-path-2)">
          <path id="Path_74889" data-name="Path 74889" d="M134.5,67.653h.307a67.153,67.153,0,0,1-67.153,67.153h0A67.153,67.153,0,0,1,.5,67.653h0a67.153,67.153,0,1,1,134.305,0h-.614a66.538,66.538,0,0,0-133.077,0h0a66.624,66.624,0,0,0,66.538,66.538h0a66.624,66.624,0,0,0,66.538-66.538Z" transform="translate(-0.542 -0.385)" fill="url(#linear-gradient-2)"/>
          <path id="Path_74890" data-name="Path 74890" d="M258.986,222.5c1.043,1.353,2.1,2.731,3.168,4.109,1.128,1.462,2.261,2.919,3.384,4.385a3.972,3.972,0,1,1-6.634,4.339c-1.623-2.966-3.228-5.941-4.841-8.912-.1-.18-.2-.358-.319-.574l-2.093.5v1.365q0,2.34,0,4.68c0,.9-.24,1.144-1.116,1.144q-21.148,0-42.3,0c-.857,0-1.105-.24-1.105-1.1q0-22.508.018-45.015a1.774,1.774,0,0,1,.477-1.12q3.882-3.955,7.835-7.838a1.679,1.679,0,0,1,1.065-.442q17.023-.034,34.047-.018c.855,0,1.075.224,1.075,1.1q0,10.777-.009,21.553c0,.486.086.688.632.793a12.6,12.6,0,0,1,10,11.014,12.465,12.465,0,0,1-3.06,9.676c-.053.062-.108.124-.156.19a1.044,1.044,0,0,0-.069.169m-8.884,3.955a13.072,13.072,0,0,1-6.515-1.559,1.61,1.61,0,0,0-.718-.085q-8.343-.006-16.685,0c-.205,0-.462.071-.6-.024a1.463,1.463,0,0,1-.634-.685c-.1-.4.19-.69.615-.758a3.531,3.531,0,0,1,.553-.01h15.156c-.642-.754-1.253-1.412-1.791-2.127a1.053,1.053,0,0,0-.96-.483c-4.125.017-8.25.01-12.376.009a2.8,2.8,0,0,1-.613-.024.7.7,0,0,1-.608-.8.663.663,0,0,1,.676-.661c.184-.014.369-.01.554-.01h12.132a13,13,0,0,1-.9-8.238h-11.24a3.507,3.507,0,0,1-.553-.01.7.7,0,0,1-.669-.745.669.669,0,0,1,.677-.724c.2-.017.41-.012.615-.012q5.541,0,11.082-.008c.2,0,.509-.05.578-.178.413-.767.771-1.565,1.174-2.408H226.208a4.116,4.116,0,0,1-.553-.013c-.435-.059-.736-.28-.735-.755a.719.719,0,0,1,.735-.752,4.748,4.748,0,0,1,.553-.01c4.495,0,8.989-.005,13.484.008a1.285,1.285,0,0,0,1.018-.416,12.152,12.152,0,0,1,6.787-3.581c.858-.143,1.731-.2,2.587-.3V179.519h-33.13v.712q0,3.233,0,6.466c0,.915-.211,1.13-1.112,1.131q-3.232,0-6.465,0H208.7v44.143h41.4Zm10.752-12.643a11.131,11.131,0,1,0-11.15,11.134,11.156,11.156,0,0,0,11.15-11.134m-5.665,11.476c.06.132.119.284.2.426q2.4,4.43,4.8,8.857a2.476,2.476,0,1,0,4.139-2.693q-3.094-4.021-6.2-8.034c-.083-.108-.185-.2-.263-.285l-2.675,1.73m-39.753-44.424-5.41,5.407h5.41Z" transform="translate(-164.869 -141.545)" fill="#5a0f0d"/>
          <path id="Path_74891" data-name="Path 74891" d="M226.686,191.985v5.407h-5.41l5.41-5.407" transform="translate(-176.118 -152.667)" fill="#5a0f0d"/>
          <path id="Path_74892" data-name="Path 74892" d="M237.771,310.994h5.915c0-.844,0-1.658,0-2.471a3.733,3.733,0,0,1,.024-.675c.076-.4.335-.738.748-.643.275.063.685.388.7.612.067,1.349.059,2.7.025,4.055a.721.721,0,0,1-.814.678q-3.66.013-7.319,0a.763.763,0,0,1-.819-.867q0-3.63,0-7.26a.747.747,0,0,1,.821-.853q2.276-.009,4.552,0c.5,0,.846.219.828.766s-.382.729-.874.729c-1.247,0-2.5,0-3.785,0Z" transform="translate(-188.008 -241.4)" fill="#5a0f0d"/>
          <path id="Path_74893" data-name="Path 74893" d="M237.765,237.466v5.923h5.927c0-.829,0-1.641,0-2.453a4.19,4.19,0,0,1,.019-.675.71.71,0,0,1,.74-.678.667.667,0,0,1,.741.667q.049,2,0,4a.674.674,0,0,1-.744.667q-3.721.007-7.442,0a.7.7,0,0,1-.763-.776q-.01-3.691,0-7.382c0-.564.339-.812.867-.815q2.245-.011,4.49,0c.49,0,.848.217.843.763s-.381.746-.86.754c-.984.017-1.968.006-2.952.007h-.861" transform="translate(-188.014 -187.618)" fill="#5a0f0d"/>
          <path id="Path_74894" data-name="Path 74894" d="M237.715,378.566h5.958c0-.83,0-1.625,0-2.42,0-.205-.009-.411.006-.615.036-.47.28-.8.76-.8a.738.738,0,0,1,.754.807c.021.861,0,1.723.012,2.584.037,2.039-.056,2-1.947,1.981-1.989-.019-3.978,0-5.968,0-.847,0-1.072-.212-1.074-1.039q-.009-3.477,0-6.954c0-.771.225-.983.993-.985q2.122-.005,4.245,0c.661,0,.976.251.968.752s-.314.719-.995.72c-1.208,0-2.415,0-3.713,0v5.977Z" transform="translate(-187.996 -295.122)" fill="#5a0f0d"/>
          <path id="Path_74895" data-name="Path 74895" d="M303.915,264.156q4.308,0,8.615,0c.2,0,.462-.06.6.04a1.52,1.52,0,0,1,.622.7c.109.418-.215.676-.622.759a2.81,2.81,0,0,1-.552.025q-8.615,0-17.23,0c-.223,0-.508.04-.655-.076a1.2,1.2,0,0,1-.5-.725c-.008-.217.279-.5.5-.653a1.282,1.282,0,0,1,.659-.071q4.277-.005,8.554,0" transform="translate(-234.11 -210.049)" fill="#5a0f0d"/>
          <path id="Path_74896" data-name="Path 74896" d="M302.056,245.661h-6.762a6.068,6.068,0,0,1-.614-.02.668.668,0,0,1-.658-.68.708.708,0,0,1,.625-.783,1.977,1.977,0,0,1,.429-.016h13.831c.143,0,.338-.053.42.019.253.223.6.469.656.755.072.38-.232.679-.674.709-.245.016-.491.017-.737.017h-6.516" transform="translate(-233.969 -194.145)" fill="#5a0f0d"/>
          <path id="Path_74897" data-name="Path 74897" d="M250.044,241.9c1.177-1.229,2.222-2.325,3.272-3.415.446-.462.879-.528,1.221-.2s.3.765-.14,1.228q-1.755,1.848-3.517,3.688c-.581.6-.889.6-1.491.012-.321-.315-.65-.624-.951-.959a.723.723,0,0,1-.006-1.093.678.678,0,0,1,1.037.023,7.181,7.181,0,0,1,.576.719" transform="translate(-197.517 -189.322)" fill="#5a0f0d"/>
          <path id="Path_74898" data-name="Path 74898" d="M249.969,376.589c.755-.663,1.519-1.316,2.263-1.992.333-.3.625-.651.935-.978.584-.615.954-.712,1.351-.354s.3.808-.283,1.415q-1.084,1.135-2.17,2.268c-.426.445-.844.9-1.279,1.332-.48.481-.825.481-1.314.009-.354-.342-.7-.689-1.041-1.047a.7.7,0,0,1,0-1.088.688.688,0,0,1,1.041.043,4.978,4.978,0,0,1,.486.715q.006-.161.012-.322" transform="translate(-197.508 -296.668)" fill="#5a0f0d"/>
          <path id="Path_74899" data-name="Path 74899" d="M250,309.388l3.039-3.183c.142-.148.281-.3.431-.439a.7.7,0,0,1,1.043-.046.7.7,0,0,1,.013,1.089c-.656.707-1.328,1.4-1.993,2.1-.58.61-1.152,1.227-1.742,1.827a.8.8,0,0,1-1.325,0c-.355-.342-.708-.686-1.042-1.048a.714.714,0,0,1-.033-1.051.684.684,0,0,1,1.081.006,5.666,5.666,0,0,1,.527.743" transform="translate(-197.51 -242.946)" fill="#5a0f0d"/>
          <path id="Path_74900" data-name="Path 74900" d="M377.091,324.978a9.69,9.69,0,1,1,10.083-9.061,9.685,9.685,0,0,1-10.083,9.061m-7.768-9.689a8.182,8.182,0,1,0,16.363-.016,8.182,8.182,0,0,0-16.363.016" transform="translate(-292.648 -243.025)" fill="#5a0f0d"/>
          <path id="Path_74901" data-name="Path 74901" d="M392.837,339.909c1.658-1.76,3.272-3.474,4.887-5.187.637-.675,1.052-.785,1.435-.389.348.36.239.788-.354,1.419q-2.568,2.733-5.135,5.468c-.617.656-.931.66-1.588.041q-1.5-1.413-3-2.825c-.518-.49-.588-.9-.231-1.26s.766-.294,1.281.189c.88.827,1.759,1.655,2.7,2.544" transform="translate(-309.209 -265.689)" fill="#5a0f0d"/>
        </g>
      </g>
    </g>
  </g>
</svg>
