<svg xmlns="http://www.w3.org/2000/svg" xmlns:xlink="http://www.w3.org/1999/xlink" width="155.056" height="155.787" viewBox="0 0 155.056 155.787">
  <defs>
    <clipPath id="clip-path">
      <path id="Path_74902" data-name="Path 74902" d="M2,68.845A66.845,66.845,0,1,0,68.845,2,66.845,66.845,0,0,0,2,68.845" transform="translate(-2 -2)" fill="none"/>
    </clipPath>
    <linearGradient id="linear-gradient" x1="-0.003" y1="1.003" x2="-0.002" y2="1.003" gradientUnits="objectBoundingBox">
      <stop offset="0" stop-color="#d8d8d7"/>
      <stop offset="0.116" stop-color="#e2e2e1"/>
      <stop offset="0.368" stop-color="#f2f2f2"/>
      <stop offset="0.646" stop-color="#fbfbfb"/>
      <stop offset="1" stop-color="#fff"/>
    </linearGradient>
    <clipPath id="clip-path-2">
      <rect id="Rectangle_18997" data-name="Rectangle 18997" width="134.577" height="134.577" fill="none"/>
    </clipPath>
    <linearGradient id="linear-gradient-2" x1="-0.001" y1="1.001" x2="0.001" y2="1.001" gradientUnits="objectBoundingBox">
      <stop offset="0" stop-color="#fff"/>
      <stop offset="0.354" stop-color="#fbfbfb"/>
      <stop offset="0.632" stop-color="#f2f2f2"/>
      <stop offset="0.884" stop-color="#e2e2e1"/>
      <stop offset="1" stop-color="#d8d8d7"/>
    </linearGradient>
  </defs>
  <g id="Group_51278" data-name="Group 51278" transform="translate(0)">
    <rect id="Rectangle_19003" data-name="Rectangle 19003" width="155.056" height="155.787" rx="77.528" transform="translate(0 0)" fill="#c38c56"/>
    <g id="Group_50335" data-name="Group 50335" transform="translate(9.509 10.24)">
      <g id="Group_50332" data-name="Group 50332" transform="translate(0.516 0.441)">
        <g id="Group_50331" data-name="Group 50331" clip-path="url(#clip-path)">
          <rect id="Rectangle_18996" data-name="Rectangle 18996" width="133.845" height="133.845" transform="translate(-0.517 0.29)" fill="url(#linear-gradient)"/>
        </g>
      </g>
      <g id="Group_50334" data-name="Group 50334" transform="translate(0 0)">
        <g id="Group_50333" data-name="Group 50333" clip-path="url(#clip-path-2)">
          <path id="Path_74903" data-name="Path 74903" d="M134.5,67.653h.307a67.153,67.153,0,0,1-67.153,67.153h0A67.153,67.153,0,0,1,.5,67.653h0a67.153,67.153,0,1,1,134.305,0h-.614a66.538,66.538,0,0,0-133.077,0h0a66.624,66.624,0,0,0,66.538,66.538h0a66.624,66.624,0,0,0,66.538-66.538Z" transform="translate(-0.291 -0.366)" fill="url(#linear-gradient-2)"/>
          <path id="Path_74904" data-name="Path 74904" d="M247.7,235.144c-.892-.142-1.789-.255-2.674-.432a15.225,15.225,0,0,1-4.471-1.73,1.718,1.718,0,0,0-.793-.215c-2.044-.017-4.088-.007-6.131-.011-.606,0-.995-.346-.991-.853s.391-.834,1-.844c.208,0,.416,0,.625,0h3.638a15.744,15.744,0,0,1,.523-23.748H216.108c-.152,0-.3,0-.454,0a.909.909,0,0,1-.975-.888.884.884,0,0,1,.961-.83c.411-.014.823,0,1.288,0,0-.915,0-1.762,0-2.609,0-.927,0-1.855,0-2.782,0-.716.3-1.111.837-1.119s.861.4.862,1.1q0,2.356,0,4.712v.659h2.361v-11.4h-2.362c0,.559,0,1.121,0,1.683-.007.609-.34,1-.846,1s-.845-.384-.851-.992c-.006-.7-.009-1.4,0-2.1a1.306,1.306,0,0,1,1.345-1.376c1-.026,2.006-.018,3.009,0a1.335,1.335,0,0,1,1.447,1.507q.01,5.479,0,10.957v.719h2.385v-.693q0-9.453,0-18.906c0-1.361.427-1.782,1.8-1.783.871,0,1.741-.005,2.612,0a1.321,1.321,0,0,1,1.429,1.295,6.216,6.216,0,0,1,.011.624q0,9.367,0,18.735v.723h2.369v-.655q0-5.535,0-11.071c0-1.4.417-1.811,1.836-1.812.833,0,1.665-.006,2.5,0a1.365,1.365,0,0,1,1.5,1.523q.006,5.649,0,11.3v.74c.631,0,1.232.037,1.826-.013.391-.033.588-.274.581-.738-.03-1.93-.015-3.86-.011-5.791a1.307,1.307,0,0,1,1.469-1.462q1.448-.005,2.9,0A1.289,1.289,0,0,1,247.374,199c.012,1.343,0,2.687,0,4.031v.559l5.193.533c0-.076.02-.254.02-.433q0-12.093.014-24.186c0-.584-.174-.731-.74-.73q-19.7.021-39.4.011c-.761,0-.763,0-.763.748q0,25.378,0,50.756c0,.774,0,.774.8.775q8.374,0,16.748.006c.254,0,.6.008.741.161a1.152,1.152,0,0,1,.326.864c-.06.258-.408.473-.669.649-.118.079-.332.019-.5.019-5.545,0-11.09-.024-16.635.019A2.384,2.384,0,0,1,210,231.283V178.476A2.63,2.63,0,0,1,211.7,177h40.883c1.474.619,1.716,1,1.716,2.663v14.357c0,3.443,0,6.885-.007,10.328a.624.624,0,0,0,.425.681,15.546,15.546,0,0,1,8.454,9,.545.545,0,0,0,.619.421c.642-.023,1.286-.017,1.929,0a1.465,1.465,0,0,1,1.609,1.624c.008.812,0,1.624,0,2.361l.811.587v.681l-.811.732c0,.751.01,1.564,0,2.375a1.435,1.435,0,0,1-1.554,1.552c-.623.006-1.249.031-1.87-.009-.432-.028-.612.131-.769.528a15.5,15.5,0,0,1-10.9,9.755,30.585,30.585,0,0,1-3.056.512Zm11.143-16.618A10.469,10.469,0,1,0,250,229.8c4.7-.64,9.493-5.82,8.793-9.5H257.18c-.75,4.529-3.683,7.359-8.092,7.837a8.829,8.829,0,0,1-9.033-6.223.849.849,0,0,1,.539-1.089.833.833,0,0,1,1.066.5c.062.137.1.286.148.428a7.038,7.038,0,0,0,9.718,3.969,6.939,6.939,0,0,0,3.9-5.455,9.2,9.2,0,0,1-1.078-.008c-.495-.062-.7.1-.845.609a5.25,5.25,0,0,1-6.766,3.555,5.293,5.293,0,0,1,2.234-10.278,5.371,5.371,0,0,1,4.616,3.957c.048.173.22.424.357.44a12.978,12.978,0,0,0,1.455.021,7.011,7.011,0,0,0-10.54-5.192,7.139,7.139,0,0,0-3.287,4.441.817.817,0,0,1-1.06.665.843.843,0,0,1-.584-1.113,8.491,8.491,0,0,1,6.487-6.452,8.38,8.38,0,0,1,8.652,2.791,8.539,8.539,0,0,1,2.1,4.828Zm1.395,4.288a12.256,12.256,0,0,1-23.99-2.517A12.178,12.178,0,0,1,245,207.678a11.889,11.889,0,0,1,9.324,1.023,12.213,12.213,0,0,1,5.89,7.339l1.225-1.654a13.964,13.964,0,1,0,0,10.026l-1.2-1.6m-31.067-36.929H226.9v19.668h2.27Zm5.936,19.653h2.3v-11.8h-2.3Zm16.767,13.021a3.551,3.551,0,0,0-3.856-2.71,3.583,3.583,0,0,0,.33,7.139,3.463,3.463,0,0,0,3.489-2.725c-.456,0-.912-.029-1.361.013a1.03,1.03,0,0,0-.608.281,1.827,1.827,0,0,1-2.67.18,1.827,1.827,0,1,1,2.672-2.48,1.027,1.027,0,0,0,.607.288c.449.043.9.013,1.4.013m-8.556-19.291v5.264c.646-.164,1.295-.355,1.955-.486.311-.062.4-.187.4-.486-.013-1.1-.005-2.193-.005-3.29v-1Zm22.245,16.9c-1.073,0-2.111,0-3.148.006a.379.379,0,0,0-.28.141c-.429.721-.843,1.452-1.282,2.217h4.71Zm-4.709,4.123c.438.759.838,1.46,1.249,2.153.051.086.162.193.247.195,1.068.013,2.137.009,3.217.009v-2.357Z" transform="translate(-166.899 -140.731)" fill="#5a0f0d"/>
          <path id="Path_74905" data-name="Path 74905" d="M240.922,347.851h-6.812c-.132,0-.265.006-.4,0a.871.871,0,0,1-.863-.87.853.853,0,0,1,.845-.823c.358-.019.719-.008,1.078-.008H247.6c.151,0,.3,0,.454,0,.614.014,1,.336,1,.842s-.381.848-.983.86c-.284.006-.568,0-.851,0h-6.3" transform="translate(-185.071 -275.245)" fill="#5a0f0d"/>
          <path id="Path_74906" data-name="Path 74906" d="M241.2,389.489c-2.365,0-4.731.017-7.1-.021a1.206,1.206,0,0,1-.857-.476.989.989,0,0,1,.088-.866.967.967,0,0,1,.723-.322q7.152-.028,14.3-.012a.854.854,0,1,1-.01,1.695q-3.576.008-7.152,0" transform="translate(-185.331 -308.365)" fill="#5a0f0d"/>
          <path id="Path_74907" data-name="Path 74907" d="M331.083,232.792q-2.893,0-5.787,0a2.057,2.057,0,0,1-.612-.074.774.774,0,0,1-.564-.874.758.758,0,0,1,.659-.743,3.748,3.748,0,0,1,.676-.05q5.673,0,11.346,0c.937,0,1.317.253,1.319.869s-.378.876-1.309.876h-5.73" transform="translate(-257.652 -183.711)" fill="#5a0f0d"/>
          <path id="Path_74908" data-name="Path 74908" d="M238.767,408.481c1.551,0,3.1,0,4.652,0,.224,0,.512-.03.657.09a.842.842,0,0,1,.029,1.546c-.14.125-.431.108-.654.108q-4.708.009-9.418,0c-.076,0-.151,0-.227,0a.931.931,0,0,1-.955-.86.9.9,0,0,1,.979-.882c1.645-.013,3.29,0,4.936-.005" transform="translate(-185.073 -324.818)" fill="#5a0f0d"/>
          <path id="Path_74909" data-name="Path 74909" d="M268.759,366.832c1.3,0,2.607,0,3.91,0,.428,0,.828.136.934.577a1.108,1.108,0,0,1-.146.824,1.026,1.026,0,0,1-.73.332c-2.644.023-5.289.022-7.933.01-.626,0-.974-.345-.974-.868s.351-.863.973-.871c1.322-.016,2.644,0,3.966-.005" transform="translate(-209.7 -291.695)" fill="#5a0f0d"/>
          <path id="Path_74910" data-name="Path 74910" d="M328.5,211.958c1.152,0,2.3,0,3.456,0,.638,0,1.037.351,1.021.874-.015.5-.4.825-1.013.826q-3.427.008-6.855,0c-.657,0-1.026-.331-1.012-.875.013-.515.38-.823,1-.826,1.133,0,2.266,0,3.4,0" transform="translate(-257.634 -168.531)" fill="#5a0f0d"/>
          <path id="Path_74911" data-name="Path 74911" d="M236.892,211.958c1,0,2.006,0,3.009,0,.641,0,.987.3,1,.83.011.553-.345.869-1.014.871q-3.009.007-6.017,0c-.617,0-1-.328-1.016-.83-.015-.519.392-.867,1.032-.87,1,0,2.006,0,3.009,0" transform="translate(-185.072 -168.53)" fill="#5a0f0d"/>
          <path id="Path_74912" data-name="Path 74912" d="M236.9,229.192c.984,0,1.968,0,2.952,0,.67,0,1.04.309,1.048.849s-.338.867-1.019.87q-3.009.014-6.018,0c-.616,0-1-.346-1.01-.841-.01-.515.4-.872,1.039-.876,1-.007,2.006,0,3.009,0" transform="translate(-185.074 -182.236)" fill="#5a0f0d"/>
          <path id="Path_74913" data-name="Path 74913" d="M367.062,251.955c-.641,0-1.283.011-1.924,0a.825.825,0,0,1-.919-.846.846.846,0,0,1,.918-.861q1.98-.021,3.961,0a.839.839,0,0,1,.916.86.816.816,0,0,1-.915.847c-.679.014-1.358,0-2.037,0" transform="translate(-289.544 -198.972)" fill="#5a0f0d"/>
          <path id="Path_74914" data-name="Path 74914" d="M235.438,368.565c-.529,0-1.059.014-1.588,0a.878.878,0,1,1,0-1.741q1.616-.024,3.233,0c.625.01.974.344.975.869s-.342.85-.972.871c-.548.019-1.1,0-1.645,0" transform="translate(-185.074 -291.679)" fill="#5a0f0d"/>
          <path id="Path_74915" data-name="Path 74915" d="M376.2,213.627c-.359,0-.72.018-1.078,0a.843.843,0,0,1,0-1.686q1.049-.033,2.1,0a.809.809,0,0,1,.806.846.828.828,0,0,1-.809.846c-.038,0-.076,0-.113,0H376.2v0" transform="translate(-297.562 -168.502)" fill="#5a0f0d"/>
        </g>
      </g>
    </g>
  </g>
</svg>
