<svg id="Group_51277" data-name="Group 51277" xmlns="http://www.w3.org/2000/svg" xmlns:xlink="http://www.w3.org/1999/xlink" width="155.787" height="155.787" viewBox="0 0 155.787 155.787">
  <defs>
    <clipPath id="clip-path">
      <path id="Path_74863" data-name="Path 74863" d="M2,68.845A66.845,66.845,0,1,0,68.845,2,66.845,66.845,0,0,0,2,68.845" transform="translate(-2 -2)" fill="none"/>
    </clipPath>
    <linearGradient id="linear-gradient" x1="-0.003" y1="1.003" x2="-0.002" y2="1.003" gradientUnits="objectBoundingBox">
      <stop offset="0" stop-color="#d8d8d7"/>
      <stop offset="0.116" stop-color="#e2e2e1"/>
      <stop offset="0.368" stop-color="#f2f2f2"/>
      <stop offset="0.646" stop-color="#fbfbfb"/>
      <stop offset="1" stop-color="#fff"/>
    </linearGradient>
    <clipPath id="clip-path-2">
      <rect id="Rectangle_18991" data-name="Rectangle 18991" width="133.845" height="134.577" fill="none"/>
    </clipPath>
    <linearGradient id="linear-gradient-2" x1="-0.001" y1="1.001" x2="0.001" y2="1.001" gradientUnits="objectBoundingBox">
      <stop offset="0" stop-color="#fff"/>
      <stop offset="0.354" stop-color="#fbfbfb"/>
      <stop offset="0.632" stop-color="#f2f2f2"/>
      <stop offset="0.884" stop-color="#e2e2e1"/>
      <stop offset="1" stop-color="#d8d8d7"/>
    </linearGradient>
  </defs>
  <rect id="Rectangle_19000" data-name="Rectangle 19000" width="155.787" height="155.787" rx="77.894" transform="translate(0 0)" fill="#c38c56"/>
  <g id="Group_50320" data-name="Group 50320" transform="translate(10.971 10.24)">
    <g id="Group_50317" data-name="Group 50317" transform="translate(0.089 0.181)">
      <g id="Group_50316" data-name="Group 50316" clip-path="url(#clip-path)">
        <rect id="Rectangle_18989" data-name="Rectangle 18989" width="133.114" height="133.845" transform="translate(0.642 -0.181)" fill="url(#linear-gradient)"/>
      </g>
    </g>
    <g id="Group_50319" data-name="Group 50319" transform="translate(0 0)">
      <g id="Group_50318" data-name="Group 50318" transform="translate(0 0)" clip-path="url(#clip-path-2)">
        <path id="Path_74864" data-name="Path 74864" d="M134.5,67.653h.307a67.153,67.153,0,0,1-67.153,67.153h0A67.153,67.153,0,0,1,.5,67.653h0a67.153,67.153,0,1,1,134.305,0h-.614a66.538,66.538,0,0,0-133.077,0h0a66.624,66.624,0,0,0,66.538,66.538h0a66.624,66.624,0,0,0,66.538-66.538Z" transform="translate(-0.718 -0.626)" fill="url(#linear-gradient-2)"/>
        <path id="Path_74865" data-name="Path 74865" d="M213.385,224.111h26.743c1.125,0,1.4.276,1.4,1.407q0,4.241,0,8.482a2.985,2.985,0,0,1-3.186,3.174q-10.051,0-20.1,0h-.79v8.046c.9,0,1.791,0,2.684,0,.965,0,1.29.318,1.292,1.262,0,1.194,0,2.387,0,3.581,0,.829-.353,1.181-1.183,1.181q-8.857,0-17.715,0c-.84,0-1.192-.345-1.2-1.168q-.009-1.853,0-3.707c0-.792.357-1.143,1.151-1.149.921-.007,1.842,0,2.815,0v-8.046H184.491a3,3,0,0,1-3.264-3.285q0-17.34,0-34.68a2.993,2.993,0,0,1,3.242-3.244h27.577c1.04,0,1.339.3,1.339,1.341q0,13.005,0,26.01c0,.245,0,.491,0,.795m-30.131-20.1c-.009.175-.021.3-.021.418q0,14.732,0,29.464c0,.908.382,1.271,1.322,1.271q26.822,0,53.644,0c.96,0,1.32-.366,1.322-1.335q.005-3.581,0-7.162c0-.179-.024-.357-.038-.553H212.79c-1.133,0-1.41-.274-1.41-1.4q0-9.989,0-19.977v-.729Zm28.1-6.044H184.619c-.167,0-.383-.054-.492.028-.312.237-.8.51-.828.807-.1,1.047-.039,2.11-.039,3.157h28.09ZM207.4,237.2v7.968h7.968v-7.957H212.38v1.911c0,1.622-.208,2.058-.987,2.069s-1.019-.448-1.019-2.037V237.2Zm-4.028,12h16v-1.942h-16Z" transform="translate(-144.444 -156.073)" fill="#5a0f0d"/>
        <path id="Path_74866" data-name="Path 74866" d="M362.549,204.942c.981,0,1.8.034,2.611-.023a.989.989,0,0,0,.6-.482,3.032,3.032,0,0,1,5.641,1.169,3.033,3.033,0,0,1-1.9,3.15,2.964,2.964,0,0,1-3.754-1.387.7.7,0,0,0-.724-.429c-1.465.019-2.931-.008-4.4.016a1.547,1.547,0,0,1-1.219-.51c-1.038-1.064-2.085-2.12-3.161-3.145a1.388,1.388,0,0,0-.857-.358c-2.114-.03-4.229-.016-6.343-.016h-.716v-2.006h.579c2.387,0,4.773.011,7.16-.009a1.553,1.553,0,0,1,1.215.519c.973,1.009,1.966,2,2.991,3.037,1.178-1.371,2.32-2.7,3.46-4.028.572-.667,1.106-1.374,1.73-1.989a3.03,3.03,0,0,1,1.121-.535,1.509,1.509,0,0,1,.624-.008,1.7,1.7,0,0,0,1.885-.868,2.791,2.791,0,0,1,3.415-.943,3.02,3.02,0,1,1-3.7,4.363c-.136-.217-.387-.529-.569-.519-.564.031-1.185-.287-1.687.319-1.276,1.543-2.6,3.047-4,4.681m9.856-6.051a1,1,0,1,0-.985,1.017,1.05,1.05,0,0,0,.985-1.017m-4.021,8.055a1,1,0,1,0-.994-1.006,1.048,1.048,0,0,0,.994,1.006" transform="translate(-277.335 -156.003)" fill="#5a0f0d"/>
        <path id="Path_74867" data-name="Path 74867" d="M348.228,279.578v-1.983h.678c4.437,0,8.873-.006,13.31.01a1.061,1.061,0,0,0,.945-.458q1.051-1.369,2.152-2.7a.782.782,0,0,0,.156-.887,3.018,3.018,0,1,1,3.506,1.942,2.9,2.9,0,0,1-1.3,0,.734.734,0,0,0-.888.335c-.833,1.075-1.664,2.154-2.559,3.176a1.683,1.683,0,0,1-1.092.564c-4.834.037-9.668.025-14.5.024-.121,0-.241-.012-.406-.021m20.065-8.012a1,1,0,1,0,1.017.983,1.046,1.046,0,0,0-1.017-.983" transform="translate(-277.254 -214.582)" fill="#5a0f0d"/>
        <path id="Path_74868" data-name="Path 74868" d="M348.224,247.05v-1.968c.191-.013.371-.036.551-.036,2.4,0,4.811-.023,7.215.02a2.605,2.605,0,0,1,1.157.465,3.064,3.064,0,0,1,.671.654,2.119,2.119,0,0,0,2.226.929,2.843,2.843,0,0,1,3.225,2.544,3.056,3.056,0,0,1-2.477,3.4,3,3,0,0,1-3.45-2.3,2.908,2.908,0,0,1,.023-1.414,1.04,1.04,0,0,0-.3-1.076,3.126,3.126,0,0,0-2.973-1.246c-1.729.11-3.47.027-5.206.027Zm12.048,4.018a1,1,0,1,0-1.007-.994,1.047,1.047,0,0,0,1.007.994" transform="translate(-277.251 -195.1)" fill="#5a0f0d"/>
        <path id="Path_74869" data-name="Path 74869" d="M348.268,195.034v-2.006h.688c2.323,0,4.646-.007,6.969.007a.7.7,0,0,0,.725-.426A3.005,3.005,0,0,1,362.308,194a2.98,2.98,0,0,1-2.255,2.953,2.925,2.925,0,0,1-3.365-1.437.829.829,0,0,0-.883-.483c-2.489.011-4.978.006-7.537.006m12.029-1a1,1,0,1,0-1,1,1.047,1.047,0,0,0,1-1" transform="translate(-277.286 -152.131)" fill="#5a0f0d"/>
        <path id="Path_74870" data-name="Path 74870" d="M348.227,278.468v-1.956c.154-.016.311-.046.469-.047.837,0,1.675-.03,2.511.006a1.534,1.534,0,0,0,1.665-.8,2.827,2.827,0,0,1,3.388-1.056,3.035,3.035,0,0,1,1.995,3.029,2.992,2.992,0,0,1-2.215,2.73,2.875,2.875,0,0,1-3.31-1.289,1.1,1.1,0,0,0-1.188-.625c-1.083.036-2.169.011-3.314.011m6.017-1.017a1,1,0,1,0,1.014-.987,1.045,1.045,0,0,0-1.014.987" transform="translate(-277.254 -218.476)" fill="#5a0f0d"/>
        <path id="Path_74871" data-name="Path 74871" d="M219.145,250.089c0-1.217,0-2.364,0-3.512,0-1.287.232-1.514,1.543-1.515,1.068,0,2.136,0,3.2,0,.958,0,1.279.32,1.279,1.275q0,10.02,0,20.04v.784h3.975v1.986H201.1v-1.963h1.962c0-.984,0-1.9,0-2.816,0-.873.34-1.208,1.216-1.211.9,0,1.8,0,2.8,0,0-.885,0-1.754,0-2.623,0-1.124.276-1.4,1.409-1.4l2.387,0c.041,0,.083-.012.225-.033v-1.584c0-.775-.009-1.55,0-2.324a.978.978,0,0,1,1.094-1.078c.941-.01,1.882,0,2.923,0,0-.912,0-1.8,0-2.692,0-1.034.3-1.328,1.351-1.329h2.669m2.051,17.037h1.936V247.1H221.2ZM219.1,252.145h-1.938v15H219.1Zm-4.021,4.021h-1.938v10.983h1.938Zm-5.939,10.969h1.915v-5.979h-1.915Zm-4.06,0h1.956v-1.923h-1.956Z" transform="translate(-160.25 -195.118)" fill="#5a0f0d"/>
        <rect id="Rectangle_18990" data-name="Rectangle 18990" width="1.935" height="1.924" transform="translate(70.997 72.095)" fill="#5a0f0d"/>
        <path id="Path_74872" data-name="Path 74872" d="M197.965,211.7a1,1,0,1,1-.992-.995.984.984,0,0,1,.992.995" transform="translate(-156.163 -167.793)" fill="#5a0f0d"/>
        <path id="Path_74873" data-name="Path 74873" d="M211.693,210.7a1,1,0,1,1-1,.984.982.982,0,0,1,1-.984" transform="translate(-167.876 -167.793)" fill="#5a0f0d"/>
        <path id="Path_74874" data-name="Path 74874" d="M226.416,212.7a1,1,0,1,1,1.005-.982.982.982,0,0,1-1.005.982" transform="translate(-179.589 -167.791)" fill="#5a0f0d"/>
      </g>
    </g>
  </g>
</svg>
