<svg xmlns="http://www.w3.org/2000/svg" xmlns:xlink="http://www.w3.org/1999/xlink" width="155.056" height="155.787" viewBox="0 0 155.056 155.787">
  <defs>
    <clipPath id="clip-path">
      <path id="Path_74857" data-name="Path 74857" d="M2,68.845A66.845,66.845,0,1,0,68.845,2,66.845,66.845,0,0,0,2,68.845" transform="translate(-2 -2)" fill="none"/>
    </clipPath>
    <linearGradient id="linear-gradient" x1="-0.003" y1="1.003" x2="-0.002" y2="1.003" gradientUnits="objectBoundingBox">
      <stop offset="0" stop-color="#d8d8d7"/>
      <stop offset="0.116" stop-color="#e2e2e1"/>
      <stop offset="0.368" stop-color="#f2f2f2"/>
      <stop offset="0.646" stop-color="#fbfbfb"/>
      <stop offset="1" stop-color="#fff"/>
    </linearGradient>
    <clipPath id="clip-path-3">
      <rect id="Rectangle_18988" data-name="Rectangle 18988" width="134.577" height="134.577" fill="none"/>
    </clipPath>
    <linearGradient id="linear-gradient-3" x1="-0.001" y1="1.001" x2="0.001" y2="1.001" gradientUnits="objectBoundingBox">
      <stop offset="0" stop-color="#fff"/>
      <stop offset="0.354" stop-color="#fbfbfb"/>
      <stop offset="0.632" stop-color="#f2f2f2"/>
      <stop offset="0.884" stop-color="#e2e2e1"/>
      <stop offset="1" stop-color="#d8d8d7"/>
    </linearGradient>
  </defs>
  <g id="Group_51411" data-name="Group 51411" transform="translate(-261 -1236)">
    <g id="Group_50341" data-name="Group 50341" transform="translate(261 1236)">
      <rect id="Rectangle_18999" data-name="Rectangle 18999" width="155.056" height="155.787" rx="77.528" transform="translate(0 0)" fill="#c38c56"/>
      <g id="Group_50315" data-name="Group 50315" transform="translate(10.148 10.24)">
        <g id="Group_50312" data-name="Group 50312" transform="translate(0 0.706)">
          <g id="Group_50311" data-name="Group 50311" clip-path="url(#clip-path)">
            <rect id="Rectangle_18987" data-name="Rectangle 18987" width="133.845" height="133.845" transform="translate(0.092 0.026)" fill="url(#linear-gradient)"/>
          </g>
          <g id="Group_50336" data-name="Group 50336" clip-path="url(#clip-path)">
            <rect id="Rectangle_18998" data-name="Rectangle 18998" width="133.845" height="133.845" transform="translate(0.092 0.026)" fill="url(#linear-gradient)"/>
          </g>
        </g>
        <g id="Group_50314" data-name="Group 50314" transform="translate(0.092 0)">
          <g id="Group_50313" data-name="Group 50313" clip-path="url(#clip-path-3)">
            <path id="Path_74858" data-name="Path 74858" d="M134.5,67.653h.307a67.153,67.153,0,0,1-67.153,67.153h0A67.153,67.153,0,0,1,.5,67.653h0a67.153,67.153,0,1,1,134.305,0h-.614a66.538,66.538,0,0,0-133.077,0h0a66.624,66.624,0,0,0,66.538,66.538h0a66.624,66.624,0,0,0,66.538-66.538Z" transform="translate(-0.899 -0.101)" fill="url(#linear-gradient-3)"/>
            <path id="Path_74859" data-name="Path 74859" d="M383.594,421.1a1.265,1.265,0,0,0,1.28,1.3,1.3,1.3,0,0,0,1.292-1.307,1.343,1.343,0,0,0-1.263-1.288,1.308,1.308,0,0,0-1.309,1.291" transform="translate(-305.56 -333.565)" fill="#5a0f0d"/>
            <path id="Path_74860" data-name="Path 74860" d="M267.969,144.569a8.272,8.272,0,0,1,1.728,1.341,5.462,5.462,0,0,1,.511,1.745c.057.193.148.466.3.529,1.216.516,2.449.992,3.648,1.468a9.572,9.572,0,0,1,1.516-1,2.586,2.586,0,0,1,2.922.539c1.156,1.087,2.284,2.208,3.37,3.365a2.811,2.811,0,0,1-.126,4.047.715.715,0,0,0-.143.98c.448.946.824,1.927,1.2,2.906.128.336.257.5.663.516a2.9,2.9,0,0,1,3.065,3.191c0,1.375.008,2.749,0,4.124a2.831,2.831,0,0,1-2.85,2.929.83.83,0,0,0-.925.693,28.71,28.71,0,0,1-1.189,2.84.607.607,0,0,0,.112.827,2.871,2.871,0,0,1-.04,4.373q-1.424,1.443-2.866,2.869a2.854,2.854,0,0,1-4.322.021.613.613,0,0,0-.825-.13c-1.008.462-2.044.867-3.078,1.273-.29.114-.458.236-.436.588a2.979,2.979,0,0,1-3.262,3.142c-1.3-.065-2.615-.007-3.922-.014a2.864,2.864,0,0,1-3.041-2.949c-.01-.5-.193-.67-.643-.829-.965-.34-1.907-.756-2.835-1.189a.652.652,0,0,0-.883.115,2.851,2.851,0,0,1-4.32-.035q-1.462-1.451-2.911-2.916a2.856,2.856,0,0,1-.027-4.281.647.647,0,0,0,.148-.875c-.459-.988-.865-2-1.246-3.024a.627.627,0,0,0-.683-.489,2.864,2.864,0,0,1-3.037-3.139q0-2.03,0-4.059a2.867,2.867,0,0,1,2.94-3.053c.5-.015.667-.192.827-.645.349-.986.78-1.945,1.218-2.9a.575.575,0,0,0-.114-.773,2.889,2.889,0,0,1,.05-4.423c.951-.96,1.9-1.921,2.866-2.869a2.842,2.842,0,0,1,4.274-.009.634.634,0,0,0,.869.139c.984-.463,2.013-.832,3.009-1.27.192-.085.461-.318.457-.476a3.121,3.121,0,0,1,2.251-3.218Zm2.233,36.988c1.21-.611,2.278-1.131,3.328-1.686a1.391,1.391,0,0,1,1.909.243c.293.284.586.568.863.867a.452.452,0,0,0,.76.01q1.4-1.419,2.822-2.822c.3-.3.273-.535-.022-.811-.345-.322-.678-.657-1-1.006a1.218,1.218,0,0,1-.183-1.544,18.384,18.384,0,0,0,2.134-5.142,1.254,1.254,0,0,1,1.332-.986c.45-.008.9-.016,1.35,0,.388.015.542-.159.541-.535q-.009-2,0-3.995c0-.376-.141-.554-.533-.537-.428.018-.858.013-1.286,0a1.326,1.326,0,0,1-1.445-1.111,17.358,17.358,0,0,0-2.062-4.963,1.274,1.274,0,0,1,.185-1.653c.307-.329.62-.656.954-.957s.306-.547-.008-.853q-1.384-1.348-2.729-2.733c-.3-.314-.542-.352-.848-.014s-.655.681-1,1a1.21,1.21,0,0,1-1.541.184,17.841,17.841,0,0,0-5.132-2.141,1.255,1.255,0,0,1-.986-1.27c-.025-.471-.02-.945,0-1.417.013-.381-.137-.547-.526-.544q-1.994.015-3.988,0c-.375,0-.557.132-.541.528.017.429.01.859,0,1.288a1.3,1.3,0,0,1-1.1,1.445,17.784,17.784,0,0,0-4.954,2.07,1.254,1.254,0,0,1-1.695-.218,11.212,11.212,0,0,1-.862-.867c-.326-.378-.59-.388-.942-.011-.643.69-1.327,1.343-1.994,2.011-1.114,1.116-1.114,1.116.015,2.259l.045.046a1.456,1.456,0,0,1,.265,2.069,30.613,30.613,0,0,0-1.636,3.687c-.723,2.116-.667,2.147-2.908,2.161-.491,0-.694.14-.683.657.026,1.245.022,2.491,0,3.737-.008.485.134.727.659.683.383-.033.771-.011,1.157-.005a1.3,1.3,0,0,1,1.452,1.09,17.4,17.4,0,0,0,2.059,4.964,1.275,1.275,0,0,1-.218,1.7c-.291.315-.591.624-.909.911s-.322.541,0,.854q1.385,1.346,2.728,2.733c.3.313.549.355.852.013.256-.289.541-.551.817-.821a1.358,1.358,0,0,1,1.9-.257c.261.148.512.317.782.444.819.385,1.646.755,2.568,1.176,0-1.739-.017-3.306.01-4.871a.983.983,0,0,0-.6-1.04,11.415,11.415,0,0,1-1.035-19.477,5.885,5.885,0,0,1,1.484-.741A2.012,2.012,0,0,1,262.547,157a9.317,9.317,0,0,1,.089,1.6c.018,2.232-.027,4.467.054,6.7a2.523,2.523,0,0,0,2.155,2.241,2.494,2.494,0,0,0,2.479-1.674,3.671,3.671,0,0,0,.2-1.195c.02-1.89,0-3.78.012-5.67a12.433,12.433,0,0,1,.08-2.047,1.947,1.947,0,0,1,2.34-1.667,3.835,3.835,0,0,1,1.261.438,11.413,11.413,0,0,1-.577,19.964.828.828,0,0,0-.418.544c-.032,1.695-.019,3.39-.019,5.331m-10.192-23.444c-.271.178-.452.282-.617.408a8.811,8.811,0,0,0,1.84,15.07,1.918,1.918,0,0,1,1.337,2.054c-.052,2.94-.009,5.882-.027,8.823,0,.5.154.691.659.681,1.242-.023,2.486-.027,3.728,0,.553.013.681-.218.678-.729-.019-2.9.03-5.8-.029-8.695a2.006,2.006,0,0,1,1.381-2.155,8.793,8.793,0,0,0,2-14.877c-.238-.2-.5-.364-.825-.6,0,2.273,0,4.417,0,6.562a5.609,5.609,0,0,1-.811,3,5.11,5.11,0,0,1-4.755,2.473,5.339,5.339,0,0,1-4.56-5.394c-.013-2.167,0-4.333,0-6.625" transform="translate(-194.173 -114.675)" fill="#5a0f0d"/>
            <path id="Path_74861" data-name="Path 74861" d="M191.535,376.813l-7.23-1.938c-3.758-1.006-7.5-2.063-11.281-2.984a17.269,17.269,0,0,0-3.5-.211c-.125,0-.3.195-.38.34a3.427,3.427,0,0,1-3.261,1.994c-1.608-.005-3.216.009-4.823,0a3.406,3.406,0,0,1-3.6-3.643q0-6.539,0-13.079a3.443,3.443,0,0,1,3.665-3.662c1.565,0,3.13,0,4.695,0a3.533,3.533,0,0,1,3.307,1.943.9.9,0,0,0,.616.381,7.3,7.3,0,0,0,3.5-.57,15.864,15.864,0,0,1,5.352-1.238,12.336,12.336,0,0,1,8.4,2.991,4.528,4.528,0,0,1,.737.62,3.279,3.279,0,0,0,3.006,1.157c1.644-.1,3.3.012,4.95-.036a5.161,5.161,0,0,1,4.172,1.459c3.325-1.71,6.6-3.429,9.917-5.074a6.764,6.764,0,0,1,2.493-.714,4.367,4.367,0,0,1,4.444,2.745,4.711,4.711,0,0,1-1.115,5.153,4.952,4.952,0,0,1-.585.5q-2.191,1.579-4.393,3.143a1.328,1.328,0,0,1-1.937-.206,1.3,1.3,0,0,1,.42-1.9c1.355-.979,2.727-1.935,4.078-2.92a4.156,4.156,0,0,0,.878-.837,1.957,1.957,0,0,0-2.084-3.074,4.24,4.24,0,0,0-.9.336c-3.162,1.62-6.317,3.253-9.48,4.87a.619.619,0,0,0-.431.722,4.844,4.844,0,0,1-5.084,5.367c-3.513-.085-7.031-.02-10.546-.021a4.385,4.385,0,0,1-.578-.014,1.28,1.28,0,0,1-1.133-1.335,1.214,1.214,0,0,1,1.227-1.223c1.157-.025,2.315-.011,3.472-.012,2.572,0,5.145.015,7.717-.006a2.188,2.188,0,1,0,.093-4.366c-2.294-.008-4.588-.021-6.881.006a3.68,3.68,0,0,1-2.612-1.019,25.026,25.026,0,0,0-2.769-2.189c-2.858-1.9-5.927-1.89-9.041-.772a12.8,12.8,0,0,1-5.353,1.114c-.056,0-.116.04-.2.073V369.02a.734.734,0,0,0,.212.057c2.873-.3,5.529.671,8.227,1.4,4.25,1.149,8.505,2.281,12.749,3.453a6.453,6.453,0,0,0,5.418-.756c1.174-.747,2.3-1.572,3.447-2.359a1.249,1.249,0,0,1,1.5-.048,1.164,1.164,0,0,1,.542,1.278,1.261,1.261,0,0,1-.371.718c-1.968,1.478-3.9,3.034-6.313,3.754-.342.1-.686.2-1.03.3Zm-24.691-12.952q0-3.254,0-6.508c0-.82-.266-1.113-1.055-1.119q-2.348-.019-4.7,0c-.759.006-1.059.3-1.061,1.057q-.011,6.541,0,13.081c0,.75.312,1.037,1.067,1.04q2.316.007,4.631,0c.851,0,1.112-.26,1.114-1.107q0-3.222,0-6.444" transform="translate(-125.714 -280.931)" fill="#5a0f0d"/>
            <path id="Path_74862" data-name="Path 74862" d="M383.594,421.1a1.308,1.308,0,0,1,1.309-1.291,1.343,1.343,0,0,1,1.263,1.288,1.3,1.3,0,0,1-1.292,1.307,1.265,1.265,0,0,1-1.28-1.3" transform="translate(-305.56 -333.565)" fill="#5a0f0d"/>
          </g>
        </g>
      </g>
    </g>
  </g>
</svg>
