<svg xmlns="http://www.w3.org/2000/svg" xmlns:xlink="http://www.w3.org/1999/xlink" width="155.787" height="155.787" viewBox="0 0 155.787 155.787">
  <defs>
    <clipPath id="clip-path">
      <path id="Path_74875" data-name="Path 74875" d="M2,68.845A66.845,66.845,0,1,0,68.845,2,66.845,66.845,0,0,0,2,68.845" transform="translate(-2 -2)" fill="none"/>
    </clipPath>
    <linearGradient id="linear-gradient" x1="-0.003" y1="1.003" x2="-0.002" y2="1.003" gradientUnits="objectBoundingBox">
      <stop offset="0" stop-color="#d8d8d7"/>
      <stop offset="0.116" stop-color="#e2e2e1"/>
      <stop offset="0.368" stop-color="#f2f2f2"/>
      <stop offset="0.646" stop-color="#fbfbfb"/>
      <stop offset="1" stop-color="#fff"/>
    </linearGradient>
    <clipPath id="clip-path-2">
      <rect id="Rectangle_18993" data-name="Rectangle 18993" width="134.577" height="134.577" fill="none"/>
    </clipPath>
    <linearGradient id="linear-gradient-2" x1="-0.001" y1="1.001" x2="0.001" y2="1.001" gradientUnits="objectBoundingBox">
      <stop offset="0" stop-color="#fff"/>
      <stop offset="0.354" stop-color="#fbfbfb"/>
      <stop offset="0.632" stop-color="#f2f2f2"/>
      <stop offset="0.884" stop-color="#e2e2e1"/>
      <stop offset="1" stop-color="#d8d8d7"/>
    </linearGradient>
  </defs>
  <g id="Group_51279" data-name="Group 51279" transform="translate(0)">
    <rect id="Rectangle_19001" data-name="Rectangle 19001" width="155.787" height="155.787" rx="77.894" transform="translate(0 0)" fill="#c38c56"/>
    <g id="Group_50325" data-name="Group 50325" transform="translate(10.971 10.971)">
      <g id="Group_50322" data-name="Group 50322" transform="translate(0.52 0.165)">
        <g id="Group_50321" data-name="Group 50321" clip-path="url(#clip-path)">
          <rect id="Rectangle_18992" data-name="Rectangle 18992" width="133.845" height="133.845" transform="translate(0.211 -0.165)" fill="url(#linear-gradient)"/>
        </g>
      </g>
      <g id="Group_50324" data-name="Group 50324" transform="translate(0 0)">
        <g id="Group_50323" data-name="Group 50323" transform="translate(0)" clip-path="url(#clip-path-2)">
          <path id="Path_74876" data-name="Path 74876" d="M134.5,67.653h.307a67.153,67.153,0,0,1-67.153,67.153h0A67.153,67.153,0,0,1,.5,67.653h0a67.153,67.153,0,1,1,134.305,0h-.614a66.538,66.538,0,0,0-133.077,0h0a66.624,66.624,0,0,0,66.538,66.538h0a66.624,66.624,0,0,0,66.538-66.538Z" transform="translate(-0.287 -0.642)" fill="url(#linear-gradient-2)"/>
          <path id="Path_74877" data-name="Path 74877" d="M327.342,139.5a1.928,1.928,0,0,1,.592,1.638c-.03,1.843,0,3.686-.016,5.53-.006.812-.446,1.279-1.128,1.22a.963.963,0,0,1-.98-1.019c-.017-2.116-.032-4.233.02-6.348.008-.345.36-.681.553-1.021Z" transform="translate(-258.983 -111.183)" fill="#5a0f0d"/>
          <path id="Path_74878" data-name="Path 74878" d="M251.977,241.481c-.839-.211-.98-.822-.983-1.572a31.088,31.088,0,0,0-.384-6.81,17.22,17.22,0,0,0-2.733-6.277,27.26,27.26,0,0,1-4.8-11.919,17.36,17.36,0,0,1,10.181-18.893,21.441,21.441,0,0,1,15.249-1.4c6.407,1.87,9.957,6.363,11.045,12.839a38.963,38.963,0,0,1,.2,4.7,2.227,2.227,0,0,0,.183.779c1.126,2.563,2.265,5.119,3.4,7.678a1.906,1.906,0,0,1-1.582,2.894c-.112.019-.223.051-.335.068-1.144.175-1.144.175-1.144,1.311,0,1.163.008,2.327,0,3.49a3.868,3.868,0,0,1-3.815,3.857c-.935.02-1.87,0-2.805.006s-1.043.108-1.043,1.075q0,3.319,0,6.638c0,1.106-.135,1.287-1.231,1.607a3.136,3.136,0,0,1-.483,2.576c-.064.1.024.337.1.479a2.983,2.983,0,0,1-1.667,4.48.928.928,0,0,0-.484.471,4.606,4.606,0,0,1-4.723,3.214c-1.711,0-3.421,0-5.132,0a4.673,4.673,0,0,1-4.433-3.061,1.265,1.265,0,0,0-.649-.647,3.033,3.033,0,0,1-1.587-4.4c.1-.173.206-.478.125-.59a3.364,3.364,0,0,1-.466-2.593m18.441-2.181c.018-.214.046-.391.046-.568,0-1.916-.016-3.833.009-5.749a2.757,2.757,0,0,1,2.926-2.916c.89-.007,1.779,0,2.669,0,1.424-.006,2.043-.617,2.05-2.037.007-1.688-.006-3.377.006-5.065a1.113,1.113,0,0,1,1.1-1.3c.667-.112,1.34-.185,2.075-.284-.1-.26-.182-.469-.272-.672-1.09-2.454-2.19-4.9-3.262-7.366a3,3,0,0,1-.2-1.053,37.676,37.676,0,0,0-.191-4.693c-.915-5.352-3.808-9.237-9.11-10.819a19.083,19.083,0,0,0-16.749,2.743,14.2,14.2,0,0,0-6.457,11.972,22.054,22.054,0,0,0,4.146,13.415,21,21,0,0,1,3.958,12.888c-.012.494,0,.989,0,1.5Zm-8.693,2.2c-2.233,0-4.466-.005-6.7,0-.641,0-1.027.345-1.017.851s.4.842,1.037.843q6.631.007,13.262-.008a1.022,1.022,0,0,0,.729-.26c.168-.218.313-.663.2-.839a1.284,1.284,0,0,0-.88-.564c-2.209-.047-4.42-.025-6.631-.026m-.078,5.553c2.232,0,4.465,0,6.7,0a.847.847,0,0,0,.974-.82c.048-.514-.354-.853-.985-.875-.182-.006-.364,0-.547,0H257.4l-2.46,0a.848.848,0,1,0,.01,1.693l.547,0h6.15m-4.934,2.192a2.313,2.313,0,0,0,2.007,1.347c1.98.027,3.962.032,5.942,0a2.208,2.208,0,0,0,1.956-1.343Z" transform="translate(-193.023 -154.362)" fill="#5a0f0d"/>
          <path id="Path_74879" data-name="Path 74879" d="M186.812,284.146c-1,0-2,.008-3.006,0a1.089,1.089,0,1,1,0-2.159q2.972-.016,5.943,0a1.089,1.089,0,0,1,1.233,1.076,1.1,1.1,0,0,1-1.23,1.082c-.979.013-1.958,0-2.937,0" transform="translate(-145.081 -224.491)" fill="#5a0f0d"/>
          <path id="Path_74880" data-name="Path 74880" d="M441.934,284.786c-.979,0-1.959.007-2.938,0-.814-.008-1.294-.424-1.29-1.09s.476-1.067,1.3-1.069q2.9-.008,5.808,0c.8,0,1.3.43,1.3,1.082s-.5,1.07-1.31,1.078c-.957.009-1.913,0-2.87,0" transform="translate(-347.982 -225.002)" fill="#5a0f0d"/>
          <path id="Path_74881" data-name="Path 74881" d="M430.375,212.458c-.1.132-.244.507-.518.672-1.791,1.078-3.6,2.121-5.423,3.151a1.062,1.062,0,0,1-1.078-1.831c1.82-1.074,3.645-2.141,5.494-3.165.719-.4,1.539.152,1.524,1.173" transform="translate(-336.15 -168.169)" fill="#5a0f0d"/>
          <path id="Path_74882" data-name="Path 74882" d="M259.584,164.808a1.049,1.049,0,0,1-.742,1.132,1.018,1.018,0,0,1-1.267-.534c-.606-1.014-1.185-2.044-1.776-3.067-.421-.728-.853-1.449-1.261-2.185a1.094,1.094,0,0,1,.3-1.56,1.06,1.06,0,0,1,1.551.485q1.52,2.586,3.006,5.192a2.71,2.71,0,0,1,.193.535" transform="translate(-202.159 -126.232)" fill="#5a0f0d"/>
          <path id="Path_74883" data-name="Path 74883" d="M209.36,214.6a1.115,1.115,0,0,1-1.659,1.129c-1.117-.616-2.211-1.273-3.315-1.913-.67-.388-1.347-.765-2.007-1.171a1.028,1.028,0,0,1-.476-1.449,1.044,1.044,0,0,1,1.521-.4c1.785,1.008,3.564,2.026,5.322,3.081a2.6,2.6,0,0,1,.614.721" transform="translate(-160.345 -167.75)" fill="#5a0f0d"/>
          <path id="Path_74884" data-name="Path 74884" d="M387.181,160a4.633,4.633,0,0,1-.263.617q-1.439,2.517-2.9,5.021c-.423.725-1,.925-1.582.578s-.677-.947-.266-1.662c.985-1.715,1.983-3.423,2.97-5.137a1.077,1.077,0,0,1,2.039.583" transform="translate(-303.62 -126.543)" fill="#5a0f0d"/>
          <path id="Path_74885" data-name="Path 74885" d="M209.081,339.521a2.416,2.416,0,0,1-.6.738c-1.749,1.058-3.524,2.075-5.3,3.083a1.037,1.037,0,0,1-1.518-.4,1.026,1.026,0,0,1,.477-1.445c1.763-1.037,3.529-2.068,5.311-3.072.778-.438,1.612.023,1.632,1.095" transform="translate(-160.154 -269.252)" fill="#5a0f0d"/>
          <path id="Path_74886" data-name="Path 74886" d="M284.359,245c-.9-.121-1.807-.213-2.7-.369-.943-.164-1.251-.716-.977-1.633.228-.762.061-1.247-.514-1.5-.6-.263-1.082-.047-1.489.673a1.085,1.085,0,0,1-1.764.406,12.819,12.819,0,0,1-3.55-3.658c-.561-.873-.427-1.409.483-1.887a1.094,1.094,0,1,0-.779-2.044c-1.019.27-1.458.017-1.657-1.006a12.1,12.1,0,0,1,.128-5.155,1.077,1.077,0,0,1,1.545-.851c.8.241,1.292.082,1.562-.507s.036-1.089-.67-1.49a1.051,1.051,0,0,1-.442-1.7,12.689,12.689,0,0,1,3.808-3.683,1.09,1.09,0,0,1,1.746.5c.39.734.866.967,1.469.718s.772-.714.582-1.485c-.23-.931.046-1.373.976-1.566a12.213,12.213,0,0,1,5.09.076c.976.21,1.244.732.933,1.71a1.079,1.079,0,0,0,.541,1.431,1.1,1.1,0,0,0,1.439-.544c.574-.97,1.064-1.073,1.99-.414a12.878,12.878,0,0,1,3.382,3.54c.559.864.409,1.4-.5,1.876a1.118,1.118,0,0,0-.649,1.457,1.137,1.137,0,0,0,1.443.572c1.021-.256,1.448,0,1.63,1.042a13.134,13.134,0,0,1-.118,5.1,1.1,1.1,0,0,1-1.591.868c-.746-.237-1.3-.042-1.543.546s-.028,1.049.657,1.443a1.1,1.1,0,0,1,.418,1.806,12.89,12.89,0,0,1-3.669,3.538c-.828.531-1.374.379-1.843-.488a1.139,1.139,0,0,0-1.447-.677,1.124,1.124,0,0,0-.58,1.481c.254.927-.055,1.428-1.018,1.615a9.484,9.484,0,0,1-1.151.156c-.386.026-.775.006-1.162.006q-.005.051-.01.1m-8.4-20.318c2.012,2.318.639,5.458-2.506,5.651v2.4a3.229,3.229,0,0,1,3.045,2.1,3.394,3.394,0,0,1-.922,3.726l1.725,1.7a3.356,3.356,0,0,1,3.71-.743A3.3,3.3,0,0,1,283,242.7h2.413a3.27,3.27,0,0,1,2.1-3.06,3.406,3.406,0,0,1,3.736.927l1.663-1.7c-1.9-2.884-1.011-4.9,2.49-5.794v-2.347c-3.176-.391-4.133-2.839-2.2-5.9l-1.677-1.579c-2.819,1.832-4.794,1.036-5.677-2.2a.506.506,0,0,0-.348-.311c-.7-.03-1.4-.015-2.1-.015a3.228,3.228,0,0,1-2.085,3.089,3.437,3.437,0,0,1-3.751-.933l-1.6,1.8" transform="translate(-215.56 -174.032)" fill="#5a0f0d"/>
          <path id="Path_74887" data-name="Path 74887" d="M309.859,250.375a6.714,6.714,0,0,1,6.722,6.678,6.709,6.709,0,1,1-13.418,0,6.664,6.664,0,0,1,6.7-6.682m4.558,6.684a4.559,4.559,0,1,0-4.557,4.57,4.587,4.587,0,0,0,4.557-4.57" transform="translate(-240.985 -199.359)" fill="#5a0f0d"/>
        </g>
      </g>
    </g>
  </g>
</svg>
